<svg width="63.000000" height="63.000000" viewBox="0 0 63 63" fill="none" xmlns="http://www.w3.org/2000/svg" xmlns:xlink="http://www.w3.org/1999/xlink">
	<desc>
			Created with Pixso.
	</desc>
	<defs>
		<linearGradient x1="-1.786072" y1="13.650032" x2="73.878868" y2="69.825035" id="paint_linear_1_4780_0" gradientUnits="userSpaceOnUse">
			<stop stop-color="#FFB629"/>
			<stop offset="0.507189" stop-color="#FFDA56"/>
			<stop offset="1.000000" stop-color="#FFD7A6"/>
		</linearGradient>
	</defs>
	<circle id="Ellipse 35" cx="31.500000" cy="31.500000" r="31.500000" fill="url(#paint_linear_1_4780_0)" fill-opacity="1.000000"/>
	<path id="Vector" d="M43 25.46C42.99 25.3 42.95 25.14 42.87 25C42.79 24.87 42.67 24.75 42.53 24.67L32.44 19.11C32.31 19.04 32.15 19 32 19C31.84 19 31.68 19.04 31.55 19.11L21.46 24.67C21.32 24.75 21.21 24.87 21.12 25C21.04 25.14 21 25.3 21 25.46L21 36.53C21 36.69 21.04 36.85 21.12 36.99C21.21 37.12 21.32 37.24 21.46 37.32L31.55 42.88C31.68 42.95 31.84 43 32 43C32.15 43 32.31 42.95 32.44 42.88L42.53 37.32C42.67 37.24 42.79 37.12 42.87 36.99C42.95 36.85 42.99 36.69 43 36.53L43 25.46Z" stroke="#1C1F35" stroke-opacity="1.000000" stroke-width="2.000000" stroke-linejoin="round"/>
	<path id="Vector" d="M38 34L38 28.08L27 22" stroke="#1C1F35" stroke-opacity="1.000000" stroke-width="2.000000" stroke-linejoin="round" stroke-linecap="round"/>
	<path id="Vector" d="M43 25L32.1 31L21 25" stroke="#1C1F35" stroke-opacity="1.000000" stroke-width="2.000000" stroke-linejoin="round" stroke-linecap="round"/>
	<path id="Vector" d="M32 31L32 43" stroke="#1C1F35" stroke-opacity="1.000000" stroke-width="2.000000" stroke-linejoin="round" stroke-linecap="round"/>
</svg>
