<svg width="62.000000" height="62.000000" viewBox="0 0 62 62" fill="none" xmlns="http://www.w3.org/2000/svg" xmlns:xlink="http://www.w3.org/1999/xlink">
	<desc>
			Created with Pixso.
	</desc>
	<defs>
		<linearGradient x1="-1.757736" y1="13.433311" x2="72.706177" y2="68.716637" id="paint_linear_1_4815_0" gradientUnits="userSpaceOnUse">
			<stop stop-color="#FFB629"/>
			<stop offset="0.507189" stop-color="#FFDA56"/>
			<stop offset="1.000000" stop-color="#FFD7A6"/>
		</linearGradient>
	</defs>
	<circle id="Ellipse 3" cx="31.000000" cy="31.000000" r="31.000000" fill="url(#paint_linear_1_4815_0)" fill-opacity="1.000000"/>
	<path id="Vector" d="M45.92 22.44C46.53 22.44 47.03 22.92 47.03 23.51L47.03 38.48C47.03 39.07 46.53 39.55 45.92 39.55L17.14 39.55C16.53 39.55 16.03 39.07 16.03 38.48L16.03 23.51C16.03 22.92 16.53 22.44 17.14 22.44L45.92 22.44Z" stroke="#1C1F35" stroke-opacity="1.000000" stroke-width="1.500000" stroke-linejoin="round"/>
	<path id="Vector" d="M31.53 35.27C29.46 35.27 27.79 33.6 27.79 31.53C27.79 29.46 29.46 27.79 31.53 27.79C33.6 27.79 35.27 29.46 35.27 31.53C35.27 33.6 33.6 35.27 31.53 35.27Z" stroke="#1C1F35" stroke-opacity="1.000000" stroke-width="1.500000" stroke-linejoin="round"/>
	<path id="Vector" d="M38.48 22.44L47.03 29.93" stroke="#1C1F35" stroke-opacity="1.000000" stroke-width="1.500000" stroke-linejoin="round" stroke-linecap="round"/>
	<path id="Vector" d="M38.48 39.55L47.03 32.06" stroke="#1C1F35" stroke-opacity="1.000000" stroke-width="1.500000" stroke-linejoin="round" stroke-linecap="round"/>
	<path id="Vector" d="M24.58 22.44L16.03 29.93" stroke="#1C1F35" stroke-opacity="1.000000" stroke-width="1.500000" stroke-linejoin="round" stroke-linecap="round"/>
	<path id="Vector" d="M24.58 39.55L16.03 32.06" stroke="#1C1F35" stroke-opacity="1.000000" stroke-width="1.500000" stroke-linejoin="round" stroke-linecap="round"/>
</svg>
