<svg width="31.519531" height="20.721619" viewBox="0 0 31.5195 20.7216" fill="none" xmlns="http://www.w3.org/2000/svg" xmlns:xlink="http://www.w3.org/1999/xlink">
	<desc>
			Created with Pixso.
	</desc>
	<defs/>
	<path id="“" d="M12.62 0C13.12 0 13.55 0.17 13.91 0.53C14.19 0.89 14.34 1.32 14.34 1.82C14.34 2.39 14.23 2.97 14.01 3.54L8.32 18.25C7.97 18.96 7.61 19.54 7.25 19.97C6.82 20.47 6.14 20.72 5.21 20.72L1.67 20.72C1.09 20.72 0.66 20.5 0.38 20.07C0.02 19.64 -0.09 19.07 0.06 18.35L2.42 3.11C2.49 2.25 2.78 1.5 3.28 0.85C3.78 0.28 4.53 0 5.53 0L12.62 0ZM29.8 0C30.3 0 30.73 0.17 31.08 0.53C31.37 0.89 31.51 1.32 31.51 1.82C31.51 2.39 31.41 2.97 31.19 3.54L25.5 18.25C25.14 18.96 24.75 19.54 24.32 19.97C23.89 20.47 23.25 20.72 22.39 20.72L18.85 20.72C18.27 20.72 17.84 20.5 17.56 20.07C17.2 19.64 17.09 19.07 17.24 18.35L19.6 3.11C19.67 2.25 19.95 1.5 20.46 0.85C20.96 0.28 21.67 0 22.6 0L29.8 0Z" fill="#091242" fill-opacity="1.000000" fill-rule="nonzero"/>
</svg>
