<svg width="28.183594" height="26.903687" viewBox="0 0 28.1836 26.9037" fill="none" xmlns="http://www.w3.org/2000/svg" xmlns:xlink="http://www.w3.org/1999/xlink">
	<desc>
			Created with Pixso.
	</desc>
	<defs/>
	<path id="Star 1" d="M13.14 0.69L10.5 8.81C10.36 9.23 9.98 9.51 9.54 9.51L1 9.51C0.03 9.51 -0.38 10.75 0.41 11.31L7.32 16.34C7.67 16.59 7.82 17.04 7.69 17.46L5.05 25.59C4.75 26.51 5.8 27.27 6.58 26.7L13.5 21.68C13.85 21.42 14.32 21.42 14.67 21.68L21.59 26.7C22.37 27.27 23.43 26.51 23.13 25.59L20.49 17.46C20.35 17.04 20.5 16.59 20.85 16.34L27.76 11.31C28.55 10.75 28.15 9.51 27.18 9.51L18.63 9.51C18.2 9.51 17.81 9.23 17.68 8.81L15.04 0.69C14.74 -0.24 13.44 -0.24 13.14 0.69Z" fill="#FDAF3B" fill-opacity="1.000000" fill-rule="evenodd"/>
</svg>
