<svg width="19.000000" height="18.000488" viewBox="0 0 19 18.0005" fill="none" xmlns="http://www.w3.org/2000/svg" xmlns:xlink="http://www.w3.org/1999/xlink">
	<desc>
			Created with Pixso.
	</desc>
	<defs/>
	<path id="Vector" d="M1.08 0.72C0.96 0.78 0.85 0.85 0.76 0.94C0.67 1.04 0.6 1.15 0.55 1.27C0.51 1.38 0.49 1.51 0.5 1.64C0.63 3.8 1.27 9.07 4.3 12.35C7.94 16.31 12.67 17.68 17.53 17.48C17.79 17.46 18.03 17.35 18.21 17.18C18.39 17 18.49 16.77 18.5 16.52L18.5 13.06C18.49 12.74 18.37 12.43 18.16 12.18C17.94 11.92 17.64 11.75 17.31 11.67L14.88 11.17C14.57 11.11 14.26 11.13 13.98 11.24C13.69 11.35 13.45 11.54 13.28 11.78L12.74 12.54C12.69 12.61 12.62 12.66 12.53 12.69C12.44 12.71 12.35 12.71 12.27 12.67C11.03 12.17 6.1 10.01 5.56 6.37C5.55 6.3 5.56 6.23 5.6 6.16C5.63 6.1 5.68 6.05 5.75 6.01L6.72 5.45C6.99 5.3 7.2 5.07 7.32 4.8C7.45 4.53 7.48 4.23 7.42 3.94L6.88 1.62C6.8 1.29 6.61 1 6.33 0.8C6.05 0.59 5.7 0.49 5.35 0.5L1.47 0.64C1.33 0.64 1.2 0.67 1.08 0.72Z" stroke="#F6B426" stroke-opacity="1.000000" stroke-width="1.000000"/>
</svg>
