<svg width="65.000000" height="80.000000" viewBox="0 0 65 80" fill="none" xmlns="http://www.w3.org/2000/svg" xmlns:xlink="http://www.w3.org/1999/xlink">
	<desc>
			Created with Pixso.
	</desc>
	<defs/>
	<ellipse id="Ellipse 36" cx="32.500000" cy="42.000000" rx="32.500000" ry="33.000000" fill="#FFE6A5" fill-opacity="1.000000"/>
	<ellipse id="Ellipse 36" cx="32.500000" cy="42.000000" rx="32.000000" ry="32.500000" stroke="#1C1F35" stroke-opacity="1.000000" stroke-width="1.000000"/>
	<ellipse id="Ellipse 37" cx="35.000000" cy="13.500000" rx="14.000000" ry="13.500000" fill="#FFE6A5" fill-opacity="1.000000"/>
	<ellipse id="Ellipse 37" cx="35.000000" cy="13.500000" rx="13.500000" ry="13.000000" stroke="#1C1F35" stroke-opacity="1.000000" stroke-width="1.000000"/>
	<ellipse id="Ellipse 39" cx="47.000000" cy="66.500000" rx="14.000000" ry="13.500000" fill="#FFE6A5" fill-opacity="1.000000"/>
	<ellipse id="Ellipse 39" cx="47.000000" cy="66.500000" rx="13.500000" ry="13.000000" stroke="#1C1F35" stroke-opacity="1.000000" stroke-width="1.000000"/>
	<path id="Vector" d="M35.02 20.93C31.04 20.93 27.8 17.69 27.8 13.71C27.8 9.72 31.04 6.49 35.02 6.49C39.01 6.49 42.24 9.72 42.24 13.71C42.24 17.69 39.01 20.93 35.02 20.93Z" stroke="#1C1F35" stroke-opacity="1.000000" stroke-width="1.000000" stroke-linejoin="round"/>
	<path id="Vector" d="M28.36 11.49L41.68 11.49" stroke="#1C1F35" stroke-opacity="1.000000" stroke-width="1.000000" stroke-linejoin="round" stroke-linecap="round"/>
	<path id="Vector" d="M28.36 15.93L41.68 15.93" stroke="#1C1F35" stroke-opacity="1.000000" stroke-width="1.000000" stroke-linejoin="round" stroke-linecap="round"/>
	<path id="Vector" d="M35.02 20.37C33.49 20.37 32.25 17.39 32.25 13.71C32.25 10.03 33.49 7.05 35.02 7.05C36.55 7.05 37.8 10.03 37.8 13.71C37.8 17.39 36.55 20.37 35.02 20.37Z" stroke="#1C1F35" stroke-opacity="1.000000" stroke-width="1.000000" stroke-linejoin="round"/>
	<path id="Vector" d="M44.01 47.38L55.42 40.47" stroke="#1C1F35" stroke-opacity="1.000000" stroke-width="1.000000" stroke-linejoin="round" stroke-linecap="round"/>
	<path id="Vector" d="M42.14 48.38L36.98 51.36" stroke="#1C1F35" stroke-opacity="1.000000" stroke-width="1.000000" stroke-linejoin="round" stroke-linecap="round"/>
	<path id="Vector" d="M17.23 54.22C18.26 55.19 19.57 55.79 20.97 55.95C22.37 56.11 23.79 55.81 25.01 55.1L56 37.07L52.19 32.4C51.2 31.19 49.81 30.37 48.27 30.1C46.73 29.82 45.14 30.11 43.8 30.9L34.71 36.25L22.43 32.15L19.05 33.61C18.8 33.72 18.58 33.89 18.41 34.1C18.24 34.32 18.13 34.57 18.08 34.85C18.04 35.12 18.06 35.4 18.15 35.66C18.24 35.92 18.4 36.15 18.6 36.33L24.89 41.99L19.16 45.27L13.42 42.81L9.99 44.28C9.74 44.39 9.52 44.56 9.35 44.77C9.18 44.99 9.07 45.24 9.02 45.51C8.97 45.78 8.99 46.05 9.08 46.31C9.17 46.57 9.32 46.8 9.52 46.99L17.23 54.22Z" stroke="#1C1F35" stroke-opacity="1.000000" stroke-width="1.000000" stroke-linejoin="round"/>
	<path id="Vector" d="M22.74 52.65L34.16 45.74" stroke="#1C1F35" stroke-opacity="1.000000" stroke-width="1.000000" stroke-linejoin="round" stroke-linecap="round"/>
	<path id="Vector" d="M53.51 63.67C53.51 63.58 53.48 63.48 53.43 63.4C53.38 63.32 53.31 63.25 53.23 63.2L47.28 59.86C47.2 59.81 47.1 59.79 47.01 59.79C46.92 59.79 46.83 59.81 46.75 59.86L40.79 63.2C40.71 63.25 40.64 63.32 40.59 63.4C40.54 63.48 40.52 63.58 40.52 63.67L40.52 70.33C40.52 70.43 40.54 70.52 40.59 70.61C40.64 70.69 40.71 70.76 40.79 70.81L46.75 74.15C46.83 74.2 46.92 74.22 47.01 74.22C47.1 74.22 47.2 74.2 47.28 74.15L53.23 70.81C53.31 70.76 53.38 70.69 53.43 70.61C53.48 70.52 53.51 70.43 53.51 70.33L53.51 63.67Z" stroke="#1C1F35" stroke-opacity="1.000000" stroke-width="1.000000" stroke-linejoin="round"/>
	<path id="Vector" d="M53.51 63.4L47.07 67L40.52 63.4" stroke="#1C1F35" stroke-opacity="1.000000" stroke-width="1.000000" stroke-linejoin="round" stroke-linecap="round"/>
	<path id="Vector" d="M47.01 67L47.01 74.22" stroke="#1C1F35" stroke-opacity="1.000000" stroke-width="1.000000" stroke-linejoin="round" stroke-linecap="round"/>
</svg>
