<svg width="51.319336" height="55.386108" viewBox="0 0 51.3193 55.3861" fill="none" xmlns="http://www.w3.org/2000/svg" xmlns:xlink="http://www.w3.org/1999/xlink">
	<desc>
			Created with Pixso.
	</desc>
	<defs/>
	<path id="Vector" d="M25.66 7.16L25.66 1" stroke="#1C1F35" stroke-opacity="1.000000" stroke-width="2.000000" stroke-linejoin="round" stroke-linecap="round"/>
	<path id="Vector" d="M26.12 54.32C25.81 54.4 25.5 54.4 25.19 54.32C22.11 53.6 4.75 49.03 1 35.93L1 27.14C1 26.71 1.13 26.29 1.39 25.94C1.64 25.59 2 25.33 2.41 25.19L25.01 17.64C25.43 17.51 25.88 17.51 26.3 17.64L48.9 25.19C49.31 25.33 49.67 25.59 49.92 25.94C50.18 26.29 50.31 26.71 50.31 27.14L50.31 35.93C46.56 49.03 29.2 53.6 26.12 54.32Z" stroke="#1C1F35" stroke-opacity="1.000000" stroke-width="2.000000" stroke-linejoin="round"/>
	<path id="Vector" d="M26.12 47.66C23.68 47.1 9.94 43.53 6.98 33.3" stroke="#1C1F35" stroke-opacity="1.000000" stroke-width="2.000000" stroke-linejoin="round" stroke-linecap="round"/>
	<path id="Vector 1" d="M6.98 9.98L6.98 23.13L25.52 16.55L44.07 23.13L44.07 9.98C44.07 8.32 42.73 6.98 41.07 6.98L9.98 6.98C8.32 6.98 6.98 8.32 6.98 9.98Z" fill="#FFD550" fill-opacity="1.000000" fill-rule="nonzero"/>
	<path id="Vector 1" d="M6.98 9.98C6.98 8.32 8.32 6.98 9.98 6.98L41.07 6.98C42.73 6.98 44.07 8.32 44.07 9.98L44.07 23.13L25.52 16.55L6.98 23.13L6.98 9.98Z" stroke="#1C1F35" stroke-opacity="1.000000" stroke-width="2.000000"/>
	<path id="Vector" d="M25.66 37.98L25.66 17.54" stroke="#1C1F35" stroke-opacity="1.000000" stroke-width="2.000000" stroke-linejoin="round" stroke-linecap="round"/>
	<path id="Vector" d="M30.91 36.89L30.91 28.52" stroke="#1C1F35" stroke-opacity="1.000000" stroke-width="2.000000" stroke-linejoin="round" stroke-linecap="round"/>
	<path id="Vector" d="M11.76 17.75L11.76 11.76" stroke="#1C1F35" stroke-opacity="1.000000" stroke-width="2.000000" stroke-linejoin="round" stroke-linecap="round"/>
	<path id="Vector" d="M48.86 20.14L48.86 9.37" stroke="#1C1F35" stroke-opacity="1.000000" stroke-width="2.000000" stroke-linejoin="round" stroke-linecap="round"/>
</svg>
