<svg width="63.000000" height="63.000000" viewBox="0 0 63 63" fill="none" xmlns="http://www.w3.org/2000/svg" xmlns:xlink="http://www.w3.org/1999/xlink">
	<desc>
			Created with Pixso.
	</desc>
	<defs>
		<linearGradient x1="-1.786072" y1="13.650032" x2="73.878868" y2="69.825035" id="paint_linear_1_4803_0" gradientUnits="userSpaceOnUse">
			<stop stop-color="#FFB629"/>
			<stop offset="0.507189" stop-color="#FFDA56"/>
			<stop offset="1.000000" stop-color="#FFD7A6"/>
		</linearGradient>
	</defs>
	<circle id="Ellipse 35" cx="31.500000" cy="31.500000" r="31.500000" fill="url(#paint_linear_1_4803_0)" fill-opacity="1.000000"/>
	<path id="Vector" d="M41 29.14L37.85 29.14C37.44 29.14 37.04 29.3 36.74 29.58C36.45 29.87 36.28 30.26 36.28 30.66L36.28 34.47C36.28 34.88 36.45 35.26 36.74 35.55C37.04 35.83 37.44 36 37.85 36L39.42 36C39.84 36 40.24 35.83 40.54 35.55C40.83 35.26 41 34.88 41 34.47L41 29.14C41 27.93 40.75 26.74 40.27 25.62C39.79 24.51 39.09 23.5 38.21 22.65C37.32 21.8 36.27 21.12 35.12 20.67C33.97 20.21 32.73 19.99 31.49 20C30.25 19.99 29.01 20.22 27.86 20.67C26.71 21.13 25.66 21.8 24.78 22.65C23.9 23.5 23.2 24.51 22.72 25.62C22.24 26.74 22 27.93 22 29.14L22 34.47C22 34.88 22.16 35.26 22.46 35.55C22.75 35.83 23.15 36 23.57 36L25.14 36C25.55 36 25.95 35.83 26.25 35.55C26.54 35.26 26.71 34.88 26.71 34.47L26.71 30.66C26.71 30.26 26.54 29.87 26.25 29.58C25.95 29.3 25.55 29.14 25.14 29.14L22 29.14" stroke="#1C1F35" stroke-opacity="1.000000" stroke-width="2.000000" stroke-linejoin="round"/>
	<path id="Vector" d="M41 35L41 37.14C41 37.9 40.66 38.62 40.05 39.16C39.45 39.69 38.63 40 37.78 40L32 40" stroke="#1C1F35" stroke-opacity="1.000000" stroke-width="2.000000" stroke-linejoin="round" stroke-linecap="round"/>
</svg>
