<svg width="62.000000" height="62.000000" viewBox="0 0 62 62" fill="none" xmlns="http://www.w3.org/2000/svg" xmlns:xlink="http://www.w3.org/1999/xlink">
	<desc>
			Created with Pixso.
	</desc>
	<defs/>
	<path id="Vector 3" d="M41.84 28.78L41.84 18.81L47.44 18.81C50.27 18.81 52.83 20.52 53.91 23.14L55.95 28.09C56.08 28.42 55.84 28.78 55.49 28.78L41.84 28.78Z" fill="#FFD550" fill-opacity="1.000000" fill-rule="nonzero"/>
	<path id="Vector 3" d="M41.84 28.78L55.49 28.78C55.84 28.78 56.08 28.42 55.95 28.09L53.91 23.14C52.83 20.52 50.27 18.81 47.44 18.81L41.84 18.81L41.84 28.78Z" stroke="#1C1F35" stroke-opacity="1.000000" stroke-width="2.000000"/>
	<path id="Vector" d="M4.42 35.42L42.07 35.42" stroke="#1C1F35" stroke-opacity="1.000000" stroke-width="2.000000" stroke-linejoin="round" stroke-linecap="round"/>
	<path id="Vector" d="M45.16 53.14C41.49 53.14 38.52 50.16 38.52 46.49C38.52 42.83 41.49 39.85 45.16 39.85C48.83 39.85 51.81 42.83 51.81 46.49C51.81 50.16 48.83 53.14 45.16 53.14Z" stroke="#1C1F35" stroke-opacity="1.000000" stroke-width="2.000000" stroke-linejoin="round"/>
	<path id="Vector" d="M16.6 53.14C20.27 53.14 23.25 50.16 23.25 46.5C23.25 42.83 20.27 39.85 16.6 39.85C12.93 39.85 9.96 42.83 9.96 46.5C9.96 50.16 12.93 53.14 16.6 53.14Z" fill="#FFD550" fill-opacity="1.000000" fill-rule="nonzero"/>
	<path id="Vector" d="M16.6 53.14C12.93 53.14 9.96 50.16 9.96 46.5C9.96 42.83 12.93 39.85 16.6 39.85C20.27 39.85 23.25 42.83 23.25 46.5C23.25 50.16 20.27 53.14 16.6 53.14Z" stroke="#1C1F35" stroke-opacity="1.000000" stroke-width="2.000000" stroke-linejoin="round"/>
	<path id="Vector" d="M38.75 45.39L23.25 45.39" stroke="#1C1F35" stroke-opacity="1.000000" stroke-width="2.000000" stroke-linejoin="round" stroke-linecap="round"/>
	<path id="Vector" d="M9.68 45.39L6.08 45.39C5.58 45.39 5.1 45.18 4.75 44.82C4.4 44.46 4.2 43.96 4.2 43.45L4.2 16.32C4.2 15.81 4.4 15.32 4.75 14.95C5.1 14.59 5.58 14.39 6.08 14.39L41.84 14.39L41.84 40.35" stroke="#1C1F35" stroke-opacity="1.000000" stroke-width="2.000000" stroke-linejoin="round" stroke-linecap="round"/>
	<path id="Vector" d="M42.07 28.78L57.57 28.78L57.57 43.54C57.57 44.03 57.36 44.5 57 44.85C56.64 45.19 56.14 45.39 55.63 45.39L51.89 45.39" stroke="#1C1F35" stroke-opacity="1.000000" stroke-width="2.000000" stroke-linejoin="round" stroke-linecap="round"/>
	<path id="Vector" d="M8.85 28.09L8.85 18.82" stroke="#1C1F35" stroke-opacity="1.000000" stroke-width="2.000000" stroke-linejoin="round" stroke-linecap="round"/>
	<path id="Vector" d="M28.78 31L38.05 31" stroke="#1C1F35" stroke-opacity="1.000000" stroke-width="2.000000" stroke-linejoin="round" stroke-linecap="round"/>
	<path id="Vector" d="M28.78 49.71L32.1 49.71" stroke="#1C1F35" stroke-opacity="1.000000" stroke-width="2.000000" stroke-linejoin="round" stroke-linecap="round"/>
</svg>
