<svg width="63.000000" height="63.000000" viewBox="0 0 63 63" fill="none" xmlns="http://www.w3.org/2000/svg" xmlns:xlink="http://www.w3.org/1999/xlink">
	<desc>
			Created with Pixso.
	</desc>
	<defs>
		<linearGradient x1="-1.786072" y1="13.650032" x2="73.878868" y2="69.825035" id="paint_linear_1_4807_0" gradientUnits="userSpaceOnUse">
			<stop stop-color="#FFB629"/>
			<stop offset="0.507189" stop-color="#FFDA56"/>
			<stop offset="1.000000" stop-color="#FFD7A6"/>
		</linearGradient>
	</defs>
	<circle id="Ellipse 35" cx="31.500000" cy="31.500000" r="31.500000" fill="url(#paint_linear_1_4807_0)" fill-opacity="1.000000"/>
	<path id="Vector" d="M29.5 42C25.35 42 22 37.07 22 31C22 24.92 25.35 20 29.5 20C33.64 20 37 24.92 37 31C37 37.07 33.64 42 29.5 42Z" stroke="#1C1F35" stroke-opacity="1.000000" stroke-width="2.000000" stroke-linejoin="round"/>
	<path id="Vector" d="M30 20L35.53 20C39.1 20 42 24.92 42 31C42 37.07 39.1 42 35.53 42L30 42" stroke="#1C1F35" stroke-opacity="1.000000" stroke-width="2.000000" stroke-linejoin="round" stroke-linecap="round"/>
	<path id="Vector" d="M36 24L39 24" stroke="#1C1F35" stroke-opacity="1.000000" stroke-width="2.000000" stroke-linejoin="round" stroke-linecap="round"/>
	<path id="Vector" d="M37 31L42 31" stroke="#1C1F35" stroke-opacity="1.000000" stroke-width="2.000000" stroke-linejoin="round" stroke-linecap="round"/>
	<path id="Vector" d="M35 39L40 39" stroke="#1C1F35" stroke-opacity="1.000000" stroke-width="2.000000" stroke-linejoin="round" stroke-linecap="round"/>
</svg>
