<svg width="56.476562" height="46.000000" viewBox="0 0 56.4766 46" fill="none" xmlns="http://www.w3.org/2000/svg" xmlns:xlink="http://www.w3.org/1999/xlink">
	<desc>
			Created with Pixso.
	</desc>
	<defs/>
	<path id="Vector" d="M2.04 45L54.42 45" stroke="#141414" stroke-opacity="1.000000" stroke-width="2.000000" stroke-linejoin="round" stroke-linecap="round"/>
	<path id="Vector" d="M32.42 45L32.42 2.91C32.42 2.4 32.22 1.91 31.85 1.56C31.49 1.2 30.99 1 30.48 1L7.13 1C6.62 1 6.12 1.2 5.76 1.56C5.39 1.91 5.19 2.4 5.19 2.91L5.19 45" stroke="#141414" stroke-opacity="1.000000" stroke-width="2.000000" stroke-linejoin="round" stroke-linecap="round"/>
	<path id="Rectangle 19" d="M32.42 13.57L48.28 13.57C49.94 13.57 51.28 14.91 51.28 16.57L51.28 43.95L32.42 43.95L32.42 13.57Z" fill="#FFD550" fill-opacity="1.000000" fill-rule="evenodd"/>
	<path id="Rectangle 19" d="M48.28 13.57C49.94 13.57 51.28 14.91 51.28 16.57L51.28 43.95L32.42 43.95L32.42 13.57L48.28 13.57Z" stroke="#141414" stroke-opacity="1.000000" stroke-width="2.000000" stroke-linejoin="round"/>
	<path id="Vector" d="M13.57 10.42L20.9 10.42" stroke="#141414" stroke-opacity="1.000000" stroke-width="2.000000" stroke-linejoin="round" stroke-linecap="round"/>
	<path id="Vector" d="M1 40.8L1 26.14" stroke="#141414" stroke-opacity="1.000000" stroke-width="2.000000" stroke-linejoin="round" stroke-linecap="round"/>
	<path id="Vector" d="M55.47 30.33L55.47 15.66" stroke="#141414" stroke-opacity="1.000000" stroke-width="2.000000" stroke-linejoin="round" stroke-linecap="round"/>
	<path id="Vector" d="M35.57 9.38L42.9 9.38" stroke="#141414" stroke-opacity="1.000000" stroke-width="2.000000" stroke-linejoin="round" stroke-linecap="round"/>
	<path id="Vector" d="M16.71 26.14L24.04 26.14" stroke="#141414" stroke-opacity="1.000000" stroke-width="2.000000" stroke-linejoin="round" stroke-linecap="round"/>
	<path id="Vector" d="M13.57 35.57L20.9 35.57" stroke="#141414" stroke-opacity="1.000000" stroke-width="2.000000" stroke-linejoin="round" stroke-linecap="round"/>
	<path id="Vector" d="M39.76 35.57L43.95 35.57" stroke="#141414" stroke-opacity="1.000000" stroke-width="2.000000" stroke-linejoin="round" stroke-linecap="round"/>
	<path id="Vector" d="M39.76 26.14L43.95 26.14" stroke="#141414" stroke-opacity="1.000000" stroke-width="2.000000" stroke-linejoin="round" stroke-linecap="round"/>
</svg>
