<svg width="76.004883" height="65.217407" viewBox="0 0 76.0049 65.2174" fill="none" xmlns="http://www.w3.org/2000/svg" xmlns:xlink="http://www.w3.org/1999/xlink">
	<desc>
			Created with Pixso.
	</desc>
	<defs/>
	<path id="Vector" d="M17.3 55.43L53.17 55.43" stroke="#1C1F35" stroke-opacity="1.000000" stroke-width="2.000000" stroke-linejoin="round" stroke-linecap="round"/>
	<path id="Vector" d="M34.33 40.47L49.86 31.13" stroke="#1C1F35" stroke-opacity="1.000000" stroke-width="2.000000" stroke-linejoin="round" stroke-linecap="round"/>
	<path id="Vector" d="M9.7 37.88L15.71 43.9" stroke="#1C1F35" stroke-opacity="1.000000" stroke-width="2.000000" stroke-linejoin="round" stroke-linecap="round"/>
	<path id="Vector" d="M1 35.71L7.02 41.72" stroke="#1C1F35" stroke-opacity="1.000000" stroke-width="2.000000" stroke-linejoin="round" stroke-linecap="round"/>
	<path id="Vector" d="M25.23 44.51C26.49 45.72 28.1 46.48 29.81 46.68C31.53 46.88 33.26 46.51 34.76 45.62L72.74 23L68.07 17.14C66.86 15.62 65.16 14.6 63.27 14.25C61.38 13.91 59.44 14.27 57.79 15.26L46.65 21.97L31.6 16.83L27.46 18.66C27.15 18.79 26.88 19.01 26.67 19.28C26.46 19.55 26.32 19.87 26.27 20.21C26.21 20.55 26.24 20.9 26.35 21.23C26.47 21.55 26.66 21.84 26.91 22.07L34.61 29.17L27.58 33.28L20.56 30.2L16.34 32.05C16.04 32.18 15.77 32.39 15.56 32.66C15.36 32.93 15.22 33.25 15.16 33.58C15.1 33.92 15.13 34.27 15.23 34.59C15.34 34.91 15.52 35.21 15.77 35.44L25.23 44.51Z" stroke="#1C1F35" stroke-opacity="1.000000" stroke-width="2.000000" stroke-linejoin="round"/>
	<path id="Vector 2" d="M68.93 18.47C62.9 23.21 56.95 23.8 52.63 18.47L56.03 16.27C60.25 13.52 65.87 14.48 68.93 18.47Z" fill="#FFD550" fill-opacity="1.000000" fill-rule="nonzero"/>
	<path id="Vector 2" d="M68.93 18.47C65.87 14.48 60.25 13.52 56.03 16.27L52.63 18.47C56.95 23.8 62.9 23.21 68.93 18.47Z" stroke="#1C1F35" stroke-opacity="1.000000" stroke-width="2.000000"/>
</svg>
