<svg width="63.000000" height="63.000000" viewBox="0 0 63 63" fill="none" xmlns="http://www.w3.org/2000/svg" xmlns:xlink="http://www.w3.org/1999/xlink">
	<desc>
			Created with Pixso.
	</desc>
	<defs>
		<linearGradient x1="-1.786072" y1="13.650032" x2="73.878868" y2="69.825035" id="paint_linear_1_4786_0" gradientUnits="userSpaceOnUse">
			<stop stop-color="#FFB629"/>
			<stop offset="0.507189" stop-color="#FFDA56"/>
			<stop offset="1.000000" stop-color="#FFD7A6"/>
		</linearGradient>
	</defs>
	<circle id="Ellipse 35" cx="31.500000" cy="31.500000" r="31.500000" fill="url(#paint_linear_1_4786_0)" fill-opacity="1.000000"/>
	<path id="Vector" d="M32 20C25.37 20 20 25.37 20 32C20 38.62 25.37 44 32 44C38.62 44 44 38.62 44 32C44 25.37 38.62 20 32 20Z" stroke="#1C1F35" stroke-opacity="1.000000" stroke-width="2.000000" stroke-linejoin="round"/>
	<path id="Vector" d="M21 36L43 36" stroke="#1C1F35" stroke-opacity="1.000000" stroke-width="2.000000" stroke-linejoin="round" stroke-linecap="round"/>
	<path id="Vector" d="M21 28L43 28" stroke="#1C1F35" stroke-opacity="1.000000" stroke-width="2.000000" stroke-linejoin="round" stroke-linecap="round"/>
	<path id="Vector" d="M32 20C29.79 20 28 25.37 28 32C28 38.62 29.79 44 32 44C34.2 44 36 38.62 36 32C36 25.37 34.2 20 32 20Z" stroke="#1C1F35" stroke-opacity="1.000000" stroke-width="2.000000" stroke-linejoin="round"/>
</svg>
