<svg width="63.000000" height="63.000000" viewBox="0 0 63 63" fill="none" xmlns="http://www.w3.org/2000/svg" xmlns:xlink="http://www.w3.org/1999/xlink">
	<desc>
			Created with Pixso.
	</desc>
	<defs>
		<linearGradient x1="-1.786072" y1="13.650032" x2="73.878868" y2="69.825035" id="paint_linear_1_4796_0" gradientUnits="userSpaceOnUse">
			<stop stop-color="#FFB629"/>
			<stop offset="0.507189" stop-color="#FFDA56"/>
			<stop offset="1.000000" stop-color="#FFD7A6"/>
		</linearGradient>
	</defs>
	<circle id="Ellipse 35" cx="31.500000" cy="31.500000" r="31.500000" fill="url(#paint_linear_1_4796_0)" fill-opacity="1.000000"/>
	<path id="Vector" d="M32 23L32 20" stroke="#1C1F35" stroke-opacity="1.000000" stroke-width="2.000000" stroke-linejoin="round" stroke-linecap="round"/>
	<path id="Vector" d="M32.18 41.97C32.06 42 31.93 42 31.81 41.97C30.56 41.68 23.52 39.82 22 34.48L22 30.9C22 30.73 22.05 30.56 22.15 30.41C22.26 30.27 22.4 30.16 22.57 30.11L31.73 27.03C31.9 26.98 32.09 26.98 32.26 27.03L41.42 30.11C41.59 30.16 41.73 30.27 41.84 30.41C41.94 30.56 42 30.73 42 30.9L42 34.48C40.47 39.82 33.43 41.68 32.18 41.97Z" stroke="#1C1F35" stroke-opacity="1.000000" stroke-width="2.000000" stroke-linejoin="round"/>
	<path id="Vector" d="M32 35L32 27" stroke="#1C1F35" stroke-opacity="1.000000" stroke-width="2.000000" stroke-linejoin="round" stroke-linecap="round"/>
	<path id="Vector" d="M25 29L25 23.75C25 23.55 25.08 23.36 25.24 23.21C25.4 23.07 25.61 23 25.83 23L39.16 23C39.38 23 39.59 23.07 39.75 23.21C39.91 23.36 40 23.55 40 23.75L40 29" stroke="#1C1F35" stroke-opacity="1.000000" stroke-width="2.000000" stroke-linejoin="round" stroke-linecap="round"/>
</svg>
