<svg width="22.338867" height="21.495483" viewBox="0 0 22.3389 21.4955" fill="none" xmlns="http://www.w3.org/2000/svg" xmlns:xlink="http://www.w3.org/1999/xlink">
	<desc>
			Created with Pixso.
	</desc>
	<defs/>
	<path id="Vector" d="M15.82 1.79C17.05 1.79 18.23 2.26 19.1 3.1C19.98 3.94 20.47 5.08 20.47 6.26L20.47 15.22C20.47 16.41 19.98 17.54 19.1 18.38C18.23 19.22 17.05 19.7 15.82 19.7L6.51 19.7C5.28 19.7 4.1 19.22 3.22 18.38C2.35 17.54 1.86 16.41 1.86 15.22L1.86 6.26C1.86 5.08 2.35 3.94 3.22 3.1C4.1 2.26 5.28 1.79 6.51 1.79L15.82 1.79ZM15.82 0L6.51 0C2.93 0 0 2.82 0 6.26L0 15.22C0 18.67 2.93 21.49 6.51 21.49L15.82 21.49C19.4 21.49 22.33 18.67 22.33 15.22L22.33 6.26C22.33 2.82 19.4 0 15.82 0Z" fill="#1C1F35" fill-opacity="1.000000" fill-rule="nonzero"/>
	<path id="Vector" d="M17.22 6.26C16.94 6.26 16.67 6.19 16.44 6.04C16.21 5.89 16.03 5.68 15.93 5.44C15.82 5.19 15.79 4.92 15.85 4.66C15.9 4.4 16.03 4.16 16.23 3.97C16.42 3.78 16.67 3.66 16.94 3.6C17.21 3.55 17.49 3.58 17.75 3.68C18 3.78 18.22 3.95 18.38 4.18C18.53 4.4 18.61 4.66 18.61 4.92C18.61 5.1 18.58 5.27 18.51 5.44C18.44 5.6 18.33 5.75 18.2 5.87C18.07 6 17.92 6.1 17.75 6.16C17.58 6.23 17.4 6.27 17.22 6.26ZM11.17 7.16C11.9 7.16 12.62 7.37 13.23 7.76C13.85 8.16 14.32 8.72 14.61 9.37C14.89 10.03 14.96 10.75 14.82 11.44C14.67 12.14 14.32 12.78 13.8 13.28C13.28 13.78 12.61 14.12 11.89 14.26C11.17 14.4 10.42 14.32 9.74 14.05C9.06 13.78 8.48 13.32 8.07 12.73C7.66 12.14 7.44 11.45 7.44 10.74C7.44 9.79 7.84 8.88 8.53 8.21C9.23 7.54 10.18 7.16 11.17 7.16ZM11.17 5.37C10.06 5.37 8.98 5.68 8.06 6.27C7.14 6.87 6.43 7.7 6.01 8.69C5.58 9.67 5.47 10.75 5.69 11.79C5.9 12.83 6.44 13.79 7.22 14.54C8 15.29 8.99 15.81 10.08 16.01C11.16 16.22 12.28 16.11 13.3 15.71C14.32 15.3 15.2 14.61 15.81 13.73C16.42 12.84 16.75 11.81 16.75 10.74C16.75 9.32 16.16 7.95 15.11 6.94C14.07 5.94 12.65 5.37 11.17 5.37Z" fill="#1C1F35" fill-opacity="1.000000" fill-rule="nonzero"/>
</svg>
