<svg width="23.083008" height="21.490723" viewBox="0 0 23.083 21.4907" fill="none" xmlns="http://www.w3.org/2000/svg" xmlns:xlink="http://www.w3.org/1999/xlink">
	<desc>
			Created with Pixso.
	</desc>
	<defs/>
	<path id="Vector" d="M23.08 10.81C23.08 4.84 17.91 0 11.54 0C5.16 0 0 4.84 0 10.81C0 16.2 4.21 20.67 9.73 21.48L9.73 13.93L6.8 13.93L6.8 10.81L9.73 10.81L9.73 8.42C9.73 5.71 11.46 4.22 14.09 4.22C15.36 4.22 16.68 4.43 16.68 4.43L16.68 7.09L15.22 7.09C13.79 7.09 13.34 7.92 13.34 8.78L13.34 10.81L16.54 10.81L16.03 13.93L13.34 13.93L13.34 21.49C18.86 20.67 23.08 16.2 23.08 10.81Z" fill="#1C1F35" fill-opacity="1.000000" fill-rule="evenodd"/>
</svg>
