<svg width="21.750000" height="21.749878" viewBox="0 0 21.75 21.7499" fill="none" xmlns="http://www.w3.org/2000/svg" xmlns:xlink="http://www.w3.org/1999/xlink">
	<desc>
			Created with Pixso.
	</desc>
	<defs/>
	<path id="Vector" d="M20.01 0L1.85 0C0.86 0 0 0.71 0 1.69L0 19.88C0 20.87 0.86 21.74 1.85 21.74L20 21.74C21 21.74 21.75 20.86 21.75 19.88L21.75 1.69C21.75 0.71 21 0 20.01 0ZM6.74 18.12L3.62 18.12L3.62 8.44L6.74 8.44L6.74 18.12ZM5.29 6.96L5.26 6.96C4.27 6.96 3.62 6.22 3.62 5.29C3.62 4.35 4.28 3.62 5.3 3.62C6.32 3.62 6.95 4.34 6.97 5.29C6.97 6.22 6.32 6.96 5.29 6.96ZM18.12 18.12L15.01 18.12L15.01 12.83C15.01 11.56 14.56 10.69 13.43 10.69C12.57 10.69 12.06 11.27 11.83 11.84C11.75 12.05 11.72 12.32 11.72 12.61L11.72 18.12L8.61 18.12L8.61 8.44L11.72 8.44L11.72 9.78C12.18 9.14 12.88 8.21 14.53 8.21C16.58 8.21 18.12 9.56 18.12 12.46L18.12 18.12Z" fill="#1C1F35" fill-opacity="1.000000" fill-rule="nonzero"/>
</svg>
