<svg width="21.547852" height="17.226196" viewBox="0 0 21.5479 17.2262" fill="none" xmlns="http://www.w3.org/2000/svg" xmlns:xlink="http://www.w3.org/1999/xlink">
	<desc>
			Created with Pixso.
	</desc>
	<defs/>
	<path id="Vector" d="M21.54 2.04C20.74 2.39 19.88 2.62 19 2.72C19.92 2.18 20.62 1.33 20.95 0.32C20.08 0.83 19.13 1.18 18.14 1.37C17.72 0.94 17.22 0.59 16.67 0.35C16.11 0.12 15.52 -0.01 14.91 0C12.47 0 10.49 1.94 10.49 4.34C10.49 4.68 10.53 5.01 10.61 5.33C8.86 5.25 7.14 4.8 5.57 4.02C4 3.24 2.61 2.14 1.49 0.79C1.1 1.45 0.89 2.2 0.89 2.97C0.89 4.48 1.68 5.81 2.87 6.59C2.16 6.58 1.47 6.39 0.86 6.05L0.86 6.1C0.86 8.21 2.38 9.97 4.4 10.37C4.02 10.47 3.63 10.52 3.24 10.52C2.96 10.52 2.68 10.49 2.41 10.44C2.97 12.17 4.61 13.42 6.54 13.46C4.97 14.67 3.04 15.32 1.05 15.32C0.7 15.32 0.35 15.3 0 15.26C2.02 16.55 4.36 17.23 6.76 17.22C14.9 17.22 19.35 10.6 19.35 4.85C19.35 4.66 19.35 4.47 19.34 4.29C20.2 3.67 20.95 2.91 21.54 2.04Z" fill="#1C1F35" fill-opacity="1.000000" fill-rule="nonzero"/>
</svg>
