<svg width="20.534180" height="19.118164" viewBox="0 0 20.5342 19.1182" fill="none" xmlns="http://www.w3.org/2000/svg" xmlns:xlink="http://www.w3.org/1999/xlink">
	<desc>
			Created with Pixso.
	</desc>
	<defs/>
	<path id="Vector" d="M20.53 9.61C20.53 4.3 15.93 0 10.26 0C4.59 0 0 4.3 0 9.61C0 14.41 3.75 18.39 8.66 19.11L8.66 12.39L6.05 12.39L6.05 9.61L8.66 9.61L8.66 7.49C8.66 5.08 10.19 3.75 12.54 3.75C13.66 3.75 14.83 3.94 14.83 3.94L14.83 6.31L13.54 6.31C12.26 6.31 11.87 7.05 11.87 7.81L11.87 9.61L14.71 9.61L14.26 12.39L11.87 12.39L11.87 19.11C16.78 18.39 20.53 14.41 20.53 9.61Z" fill="#FFFFFF" fill-opacity="1.000000" fill-rule="evenodd"/>
</svg>
