<svg width="19.872070" height="19.123047" viewBox="0 0 19.8721 19.123" fill="none" xmlns="http://www.w3.org/2000/svg" xmlns:xlink="http://www.w3.org/1999/xlink">
	<desc>
			Created with Pixso.
	</desc>
	<defs/>
	<path id="Vector" d="M14.07 1.59C15.17 1.59 16.22 2.01 17 2.76C17.77 3.51 18.21 4.52 18.21 5.57L18.21 13.54C18.21 14.6 17.77 15.61 17 16.35C16.22 17.1 15.17 17.52 14.07 17.52L5.79 17.52C4.69 17.52 3.64 17.1 2.87 16.35C2.09 15.61 1.65 14.6 1.65 13.54L1.65 5.57C1.65 4.52 2.09 3.51 2.87 2.76C3.64 2.01 4.69 1.59 5.79 1.59L14.07 1.59ZM14.07 0L5.79 0C2.6 0 0 2.5 0 5.57L0 13.54C0 16.61 2.6 19.12 5.79 19.12L14.07 19.12C17.26 19.12 19.87 16.61 19.87 13.54L19.87 5.57C19.87 2.5 17.26 0 14.07 0Z" fill="#FFFFFF" fill-opacity="1.000000" fill-rule="nonzero"/>
	<path id="Vector" d="M15.31 5.57C15.07 5.57 14.83 5.5 14.62 5.37C14.42 5.24 14.26 5.05 14.16 4.83C14.07 4.62 14.05 4.38 14.09 4.14C14.14 3.91 14.26 3.7 14.43 3.53C14.61 3.37 14.83 3.25 15.07 3.2C15.31 3.16 15.56 3.18 15.79 3.27C16.01 3.36 16.21 3.52 16.35 3.71C16.48 3.91 16.55 4.14 16.55 4.38C16.55 4.53 16.52 4.69 16.46 4.83C16.4 4.98 16.31 5.11 16.19 5.22C16.08 5.33 15.94 5.42 15.79 5.48C15.64 5.54 15.48 5.57 15.31 5.57ZM9.93 6.37C10.59 6.37 11.23 6.56 11.77 6.91C12.32 7.26 12.74 7.75 12.99 8.34C13.24 8.92 13.31 9.56 13.18 10.18C13.05 10.8 12.74 11.36 12.27 11.81C11.81 12.26 11.22 12.56 10.58 12.68C9.93 12.81 9.27 12.74 8.66 12.5C8.06 12.26 7.54 11.85 7.18 11.33C6.81 10.8 6.62 10.19 6.62 9.56C6.62 8.71 6.97 7.9 7.59 7.3C8.21 6.71 9.05 6.37 9.93 6.37ZM9.93 4.78C8.95 4.78 7.99 5.06 7.17 5.58C6.35 6.11 5.72 6.85 5.34 7.73C4.96 8.6 4.87 9.56 5.06 10.49C5.25 11.42 5.72 12.27 6.42 12.94C7.11 13.6 8 14.06 8.96 14.25C9.93 14.43 10.92 14.33 11.83 13.97C12.74 13.61 13.52 13 14.06 12.21C14.61 11.43 14.9 10.5 14.9 9.56C14.9 8.29 14.38 7.07 13.44 6.18C12.51 5.28 11.25 4.78 9.93 4.78Z" fill="#FFFFFF" fill-opacity="1.000000" fill-rule="nonzero"/>
</svg>
