<svg width="19.417969" height="19.418457" viewBox="0 0 19.418 19.4185" fill="none" xmlns="http://www.w3.org/2000/svg" xmlns:xlink="http://www.w3.org/1999/xlink">
	<desc>
			Created with Pixso.
	</desc>
	<defs/>
	<path id="Vector" d="M17.86 0L1.65 0C0.77 0 0 0.63 0 1.51L0 17.75C0 18.63 0.77 19.41 1.65 19.41L17.86 19.41C18.75 19.41 19.41 18.62 19.41 17.75L19.41 1.51C19.42 0.63 18.75 0 17.86 0ZM6.01 16.18L3.23 16.18L3.23 7.53L6.01 7.53L6.01 16.18ZM4.72 6.22L4.7 6.22C3.81 6.22 3.23 5.55 3.23 4.72C3.23 3.88 3.82 3.23 4.73 3.23C5.65 3.23 6.2 3.87 6.22 4.72C6.22 5.55 5.65 6.22 4.72 6.22ZM16.18 16.18L13.4 16.18L13.4 11.45C13.4 10.32 12.99 9.54 11.99 9.54C11.22 9.54 10.76 10.06 10.56 10.57C10.49 10.75 10.47 11 10.47 11.25L10.47 16.18L7.68 16.18L7.68 7.53L10.47 7.53L10.47 8.74C10.87 8.16 11.5 7.33 12.97 7.33C14.8 7.33 16.18 8.53 16.18 11.13L16.18 16.18Z" fill="#FFFFFF" fill-opacity="1.000000" fill-rule="nonzero"/>
</svg>
