<svg width="19.168945" height="15.324707" viewBox="0 0 19.1689 15.3247" fill="none" xmlns="http://www.w3.org/2000/svg" xmlns:xlink="http://www.w3.org/1999/xlink">
	<desc>
			Created with Pixso.
	</desc>
	<defs/>
	<path id="Vector" d="M19.16 1.81C18.45 2.12 17.68 2.33 16.91 2.42C17.72 1.94 18.34 1.18 18.64 0.28C17.86 0.73 17.02 1.05 16.14 1.22C15.77 0.83 15.32 0.52 14.83 0.31C14.33 0.1 13.8 -0.01 13.27 0C11.09 0 9.33 1.73 9.33 3.86C9.33 4.16 9.37 4.45 9.44 4.74C7.88 4.67 6.35 4.27 4.95 3.58C3.56 2.88 2.32 1.9 1.33 0.7C0.98 1.29 0.79 1.96 0.79 2.64C0.79 3.99 1.49 5.17 2.55 5.87C1.92 5.85 1.31 5.68 0.76 5.38L0.76 5.43C0.76 7.31 2.12 8.87 3.92 9.22C3.58 9.31 3.23 9.36 2.88 9.36C2.63 9.36 2.39 9.33 2.14 9.29C2.64 10.82 4.1 11.94 5.82 11.97C4.42 13.05 2.7 13.63 0.93 13.63C0.62 13.63 0.31 13.61 0 13.57C1.79 14.72 3.88 15.33 6.01 15.32C13.26 15.32 17.21 9.43 17.21 4.31C17.21 4.15 17.21 3.98 17.2 3.81C17.97 3.27 18.63 2.59 19.16 1.81Z" fill="#FFFFFF" fill-opacity="1.000000" fill-rule="nonzero"/>
</svg>
